<?xml version="1.0" encoding="utf-8"?>
<!-- Generator: Adobe Illustrator 24.1.3, SVG Export Plug-In . SVG Version: 6.00 Build 0)  -->
<svg version="1.1" id="Layer_1" focusable="false" xmlns="http://www.w3.org/2000/svg" xmlns:xlink="http://www.w3.org/1999/xlink"
	 x="0px" y="0px" viewBox="0 0 576 512" style="enable-background:new 0 0 576 512;" xml:space="preserve">
<style type="text/css">
	.st0{fill:#FFFFFF;stroke:#000000;stroke-miterlimit:10;}
</style>
<path class="st0" d="M208,0c-29.9,0-54.7,20.5-61.8,48.2c-0.8,0-1.4-0.2-2.2-0.2c-35.3,0-64,28.7-64,64c0,4.8,0.6,9.5,1.7,14
	C52.5,138,32,166.6,32,200c0,12.6,3.2,24.3,8.3,34.9C16.3,248.7,0,274.3,0,304c0,33.3,20.4,61.9,49.4,73.9
	c-0.9,4.6-1.4,9.3-1.4,14.1c0,39.8,32.2,72,72,72c4.1,0,8.1-0.5,12-1.2c9.6,28.5,36.2,49.2,68,49.2c39.8,0,72-32.2,72-72V64
	C272,28.7,243.3,0,208,0z M576,304c0-29.7-16.3-55.3-40.3-69.1c5.2-10.6,8.3-22.3,8.3-34.9c0-33.4-20.5-62-49.7-74
	c1-4.5,1.7-9.2,1.7-14c0-35.3-28.7-64-64-64c-0.8,0-1.5,0.2-2.2,0.2C422.7,20.5,397.9,0,368,0c-35.3,0-64,28.6-64,64v376
	c0,39.8,32.2,72,72,72c31.8,0,58.4-20.7,68-49.2c3.9,0.7,7.9,1.2,12,1.2c39.8,0,72-32.2,72-72c0-4.8-0.5-9.5-1.4-14.1
	C555.6,365.9,576,337.3,576,304z"/>
</svg>
